# xmcd
#
# Track frame offsets: 
#        150
#        12288
#        23498
#        34140
#        45188
#        56255
#        67385
#        78573
#        91708
#        102815
#        112690
#        124473
#        135858
#        149403
#        161163
#        173273
#
# Disc length: 2443 seconds
#
# Revision: 0
# Processed by: cddbd v1.4PL0 Copyright (c) Steve Scherf et al.
# Submitted via: ExactAudioCopy v0.90b4
#
DISCID=be098910
DTITLE=The Drifters - 16 ORIGINAL HITS
DYEAR=1991
DGENRE=Soul
TTITLE0=Under The Boardwalk
TTITLE1=When My Little Girl Is Smiling
TTITLE2=Ruby Baby
TTITLE3=This Magic Moment
TTITLE4=Sweets For My Sweet
TTITLE5=Come On Over To My Place
TTITLE6=Saturday Night At The Movies
TTITLE7=At The Club
TTITLE8=Save The Last Dance For Me
TTITLE9=There Goes My Baby
TTITLE10=Up On The Roof
TTITLE11=Drip Drop
TTITLE12=On Broadway
TTITLE13=Some Kind Of Wonderful
TTITLE14=I'll Take You Where The Music's Playing
TTITLE15=Please Stay
EXTD=
EXTT0=
EXTT1=
EXTT2=
EXTT3=
EXTT4=
EXTT5=
EXTT6=
EXTT7=
EXTT8=
EXTT9=
EXTT10=
EXTT11=
EXTT12=
EXTT13=
EXTT14=
EXTT15=
PLAYORDER=
